<?xml version="1.0" encoding="utf-8"?>
<!-- Generator: Adobe Illustrator 25.4.1, SVG Export Plug-In . SVG Version: 6.00 Build 0)  -->
<svg version="1.1" id="Layer_1" xmlns="http://www.w3.org/2000/svg" xmlns:xlink="http://www.w3.org/1999/xlink" x="0px" y="0px"
	 viewBox="0 0 400 267" style="enable-background:new 0 0 400 267;" xml:space="preserve">
<style type="text/css">
	.st0{fill-rule:evenodd;clip-rule:evenodd;fill:#D0D2D3;}
	.st1{fill-rule:evenodd;clip-rule:evenodd;fill:#ABDFEF;}
	.st2{fill-rule:evenodd;clip-rule:evenodd;fill:#E8984F;}
	.st3{fill-rule:evenodd;clip-rule:evenodd;fill:#003B71;}
	.st4{fill-rule:evenodd;clip-rule:evenodd;fill:#008650;}
	.st5{fill-rule:evenodd;clip-rule:evenodd;fill:#FFD547;}
	.st6{fill-rule:evenodd;clip-rule:evenodd;fill:#C92026;}
	.st7{fill-rule:evenodd;clip-rule:evenodd;fill:#E1E8EA;}
	.st8{fill-rule:evenodd;clip-rule:evenodd;fill:#064763;}
	.st9{fill-rule:evenodd;clip-rule:evenodd;fill:#FFFFFF;}
</style>
<path class="st0" d="M191.8,232.6h17.4c-1.5,5-4.9,8.4-8.7,8.4C196.7,241.1,193.4,237.6,191.8,232.6"/>
<path class="st1" d="M200.6,215.9c4.8,0,8.9,5.5,9.5,12.6c-0.1,1.6-0.5,3.1-0.9,4.5c-1.1-0.3-4.4-1.2-4.6-1.3
	c-0.2-0.1-2.3-1.6-2.8-2c-0.1-0.1-0.1-0.1-0.3-0.1c-0.7,0-1.4-0.1-1.8,0.2c0,0-0.1,0-0.6,0c-0.4,0.2-1.5,0.9-1.5,0.9l-5.9,1.5
	c-0.3-1.2-0.6-2.4-0.7-3.7C191.7,221.4,195.7,215.9,200.6,215.9"/>
<path class="st2" d="M191.3,232.3l6.2-1.6c0,0,1.1-0.8,1.5-0.9c0.4,0,0.6,0,0.6,0c0.4-0.3,1.1-0.2,1.8-0.2c0.2,0,0.2,0,0.3,0.1
	c0.6,0.4,2.6,1.9,2.8,2c0.3,0.1,5,1.4,5,1.4l-1.2,3.5l-4-1.6c-0.9,0.7-2.1,1-3.3,1l-0.7-0.3l-0.2,0.2c-0.3,0.3-0.6,0.3-1,0.2
	c-1-0.3-1.9-0.9-2.9-1.5c-1.5,0.6-2.4,0.9-3.8,1.7L191.3,232.3z"/>
<path class="st3" d="M210.2,228.5L210.2,228.5c0-0.3,0-0.6,0-0.9c0-8.1-4.3-14.7-9.6-14.7c-5.3,0-9.6,6.6-9.6,14.7
	c0,0.3,0,0.6,0,0.9c0,0.3,0,0.6,0,0.9c0,8.1,4.3,14.7,9.6,14.7c5.3,0,9.6-6.6,9.6-14.7C210.2,229.1,210.2,228.7,210.2,228.5
	 M200.6,215.9c4.8,0,8.9,5.5,9.5,12.6c-0.7,7.1-4.7,12.6-9.5,12.6c-4.8,0-8.9-5.4-9.5-12.5C191.7,221.4,195.7,215.9,200.6,215.9"/>
<path class="st4" d="M191.8,244.2c-4.5-2.8-7.5-8-7.5-14c0-6,3-11.2,7.5-14c-2.4,3.4-4,8.4-4,14
	C187.8,235.8,189.4,240.8,191.8,244.2"/>
<path class="st4" d="M209.3,216.1c4.5,2.8,7.5,8,7.5,14c0,6-3,11.2-7.5,14c2.4-3.4,4-8.4,4-14C213.3,224.5,211.8,219.5,209.3,216.1"
	/>
<path class="st5" d="M200.6,205l0.5,3.8l1.5-3.5l-0.6,3.8l2.4-2.9l-1.7,3.4l3.2-2.1l-2.6,2.8l3.6-1.2l-3.2,2l3.8-0.1l-3.7,1l3.7,1
	l-2.5-0.1c-1.4-0.9-2.9-1.4-4.4-1.4c-1.6,0-3.1,0.5-4.4,1.4l-2.5,0.1l3.7-1l-3.7-1l3.8,0.1l-3.2-2l3.6,1.2l-2.6-2.8l3.2,2.1
	l-1.7-3.4l2.4,2.9l-0.6-3.8l1.5,3.5L200.6,205z"/>
<rect x="200.3" y="223" class="st3" width="0.6" height="6.8"/>
<path class="st6" d="M203,221.7l0,1.7c0,0-0.1,0.6-2.2,0.5c-2.2,0-2.3-0.6-2.3-0.6l-0.1-1.7c0,0-0.1-0.2,0.3-0.4
	c0,0,0.5-2.2,0.9-3.1c0.5-0.9,1.5-1.7,2.9-0.1c0,0,0.5,0.7,0.4,1.1c-0.1,0.5,0,0.7-0.2,0.8c-0.2,0.1-0.4,0.2-0.4,0.2
	s0.3,0.7,0.3,0.8l0,0.1c0,0,0.3,0.1,0.4,0.3L203,221.7z"/>
<path class="st7" d="M271.8,32c4.8,1.8,10.6,4.3,15.8,6.8c16.2,10.6,16.1,11.4,23.2,16.9c32.5,25.1,51.8,63,56.2,103.3
	c0.1,0.5,0.1,1,0.2,1.6c0.4,9.3-4.1,11.1-13,13.4c-0.5,0.1-0.9,0.7-0.9,1.2c0,0.7,0.4,1.3,1.4,1.3h19l0,0h-130l-15.8-6.1
	c-1.7-0.6-3-1.1-4.8-1.2l-45-0.3c-1.8,0.1-3,0.5-4.6,1.1l-17,6.4H29.8l0,0h15.5c1,0,1.4-0.6,1.4-1.3c0-0.5-0.4-1.1-0.9-1.2
	c-8.9-2.3-13.3-4.1-13-13.4c0-0.5,0.1-1,0.2-1.6c4.4-40.3,23.7-78.2,56.2-103.3c7-5.4,7.1-6.2,22.8-16.6c5.9-3,12.1-5.7,18.7-8.1
	l0,0l-3,1.4l20.6-3.9c2.4-0.5,5-0.9,7.5-0.8h82.8h1.3h4.7c2.5-0.1,5.1,0.3,7.5,0.8l20.6,3.9L271.8,32z"/>
<path class="st8" d="M367,159c-4.4-40.3-23.7-78.2-56.2-103.3c-7.2-5.5-7.1-6.2-23.6-17.1l1,0.4c16.1,6.1,31.3,14.8,44.3,26.2
	c26.9,23.6,44.7,55.9,50.4,91.2c0.2,1.2,0.4,2.4,0.5,3.6c0.1,0.4,0.1,0.8,0.1,1.2c0.2,1.3,0.3,2.6,0.4,3.9v0.1
	c0.1,1.3,0.2,2.4,0.3,2.5c0,0.4,0.1,0.7,0.1,1.1c0,0.1,0,0.3,0,0.4h13.5c1.2,0,2.2,1,2.2,2.1c0,0.5-0.2,0.9-0.5,1.3l-7.8,7.6h-0.1
	h-6.1l0.3-0.3c0.2-0.3,0.4-0.8,0.4-1.2c0-1.1-0.9-2.1-2.1-2.1l-2.9,0v0h-26.6c-1,0-1.4-0.6-1.4-1.3c0-0.5,0.4-1.1,0.9-1.2
	c8.9-2.3,13.3-4.1,13-13.4C367.1,160.1,367.1,159.5,367,159"/>
<path class="st8" d="M33,159c4.4-40.3,23.7-78.2,56.2-103.3c7.2-5.5,7.1-6.2,23.6-17.1l-1,0.4c-16.1,6.1-31.3,14.8-44.3,26.2
	c-26.9,23.6-44.7,55.9-50.4,91.2c-0.2,1.2-0.4,2.4-0.5,3.6c-0.1,0.4-0.1,0.8-0.1,1.2c-0.2,1.3-0.3,2.6-0.4,3.9v0.1
	c-0.1,1.3-0.2,2.4-0.3,2.5c0,0.4-0.1,0.7-0.1,1.1c0,0.1,0,0.3,0,0.4H2.2c-1.2,0-2.2,1-2.2,2.1c0,0.5,0.2,0.9,0.5,1.3l7.8,7.6h0.1
	h6.1l-0.3-0.3c-0.2-0.3-0.4-0.8-0.4-1.2c0-1.1,0.9-2.1,2.1-2.1l2.9,0v0h26.6c1,0,1.4-0.6,1.4-1.3c0-0.5-0.4-1.1-0.9-1.2
	c-8.9-2.3-13.3-4.1-13-13.4C32.9,160.1,32.9,159.5,33,159"/>
<path class="st9" d="M223.2,62.8l-3.6,18.6c0,0,3.1-0.6,4.2-0.6L223.2,62.8z M223.7,62.8l4.9,18.3c-1.4-0.3-2.8-0.4-4.3-0.3
	L223.7,62.8z M212.9,52.9l0.3,7.8l2.8,0.1c0,0-1.3-5.7-1.7-6.7c-0.4-1-0.8-1.2-0.8-1.2L212.9,52.9z M202.8,62.9l8.4-0.3
	c0,0,0,0.8,0.8,0.8s1.1-0.9,1.1-0.9l2.6-0.1l-4.5,7.8c0,0-0.7-1.2-1.1-1.4c-0.4-0.2-0.6-0.2-1.3-0.2c-0.7,0-3.7-2.1-3.7-2.1
	l-1.7-0.3l-0.8-2.9C202.4,63.3,202.6,63.2,202.8,62.9 M187.3,169l26.6,0l-1-10.2c0,0,0-7.3,0.1-10.4c0.1-3.1,0.3-12.3,0.3-12.3
	s1.4-1.3,2.4-2.1c0.9-0.9,0.8-0.8,0.9-3.6c0.1-2.8-2.8-41.7-2.6-42.7c0.2-1,2-3,2-3s0.6-0.8,0.9-2.5c0.3-1.7,0.5-3.2,0.6-5.1
	c0.1-1.9,0.2-2.6,0.2-2.6l3.2-11.8v-0.4l1.4,0l0.4,0.5l-3.6,19c0,0-0.5,0.3-0.4,0.6c0.1,0.3,0.4,1.9,5.6,1.9c5.2-0.2,6.2-2.3,5-2.9
	l-5.1-18.8c1.3-1.3-0.1-2.4-0.8-2.3c-0.6,0.1-0.6,0.2-1.1,0.6l-1.3,0L216.5,49c0,0-0.4-1.2-1.3-1.7c-0.9-0.6-1.9-1.2-1.9-1.2
	s-1-0.3-2.3,0.5c-1.2,0.8-1.2,0.9-1.2,0.9s-0.5,0.1-0.2,1.4c0.3,1.3,0.4,2.3,0.4,2.3l0.5,1l0.2,8.7l-8.2,0.8c0,0-1-1-2-0.1
	c-1,0.9,0.2,1.9,0.2,1.9l-0.4,2.3l-1.6-0.4l-0.8-0.7c0,0,2.1-3.2,2.2-3.8c0.1-0.6,0.2-0.8,0.7-1.5c0.5-0.7,0.6-0.9,0.6-0.9l-0.4-4.3
	c0,0,0.1-1.4-0.2-2.2c-0.3-0.8-0.6-2.4-0.6-2.4l-1.7-1.9l-1.7-0.6l-0.9-0.1l-1.8-0.1c0,0-3.9,1.2-4.3,1.5c-0.4,0.3-2.3,2.2-2.4,3.5
	c-0.2,1.4-0.2,3.5-0.2,3.5l-0.5,1.4l0.8,1.9l0.1,3l1.6,1.4c0,0-0.4,1.5,0.9,1.8l-0.1,1.8c0,0-4.7,1.7-7.9,3.5
	c-3.2,1.8-3.5,3.7-3.5,3.7l-4.5,9c0,0-0.7,1.7-0.8,2.2c-0.1,0.5-1.1,3.8-1.1,3.8l-1.2,3.8c0,0-0.7,2.8,1.4,3.9c2.1,1,8,4,8,4
	s0.3,1.2,1,1.6c0.7,0.4,2,0.8,2,0.8l2.5,63.7L187.3,169z"/>
<path class="st8" d="M224,80.8L224,80.8c-1.8,0.1-3.3,0.3-4.2,0.6l3.6-18.6l0,0L224,80.8z M228.8,81.1L228.8,81.1
	c-0.9-0.2-2.5-0.4-4.3-0.3l-0.7-18L228.8,81.1z M201.5,63.6L201.5,63.6L201.5,63.6L198,82.2c0.9-0.3,2.5-0.6,4.2-0.6L201.5,63.6z
	 M202,63.6L202,63.6l4.9,18.3c-0.9-0.2-2.5-0.4-4.3-0.3L202,63.6z M213.4,86.7L213.4,86.7c0,1.2-1.1,19.7-1.1,20.4l0.8,27l1.5-1.1
	c0.6-0.6,1.2-1.1,1.1-2.4C214.3,118.2,213.5,98.5,213.4,86.7 M195.7,62L195.7,62c0,0,0.7-0.4,1-0.4c0.4,0,0.8,0,1,0.2
	c0,0-0.5,0.4-0.9,0.4c-0.4,0-1.1-0.1-1.1-0.1L195.7,62L195.7,62z M194.6,61.3L194.6,61.3c0,0,0.4-0.7,0.7-0.5
	c0.3,0.2,0.5,0.3,0.7,0.1c0.2-0.2,0.7-0.2,0.9-0.2c0.2,0,0.4,0.1,0.6,0.2c0.2,0.1,0.5-0.3,0.7-0.3c0.2,0,0.4,0.6,0.4,0.6s-1,0-1.8,0
	c-0.8,0-2,0.3-2,0.3L194.6,61.3z M195.4,59.7L195.4,59.7c0,0,0.7-0.5,0.8-0.5c0.1,0,0.2,0.1,0.3,0.2c0.2,0.1,0.2,0.2,0.4,0.2
	c0.1,0,0.4-0.2,0.5-0.3c0.1,0,0.1-0.2,0.2-0.1c0.1,0,0.3,0.3,0.3,0.3c0,0.1-0.4,0.6-0.6,0.8c-0.2,0.2-0.4,0.3-0.7,0.2
	c-0.3-0.1-0.7-0.3-0.9-0.4c-0.1-0.1-0.2-0.2-0.2-0.2L195.4,59.7z M196.7,56L196.7,56c0-0.1,0.1-0.6,0.6-0.7c0.5-0.1,1.2,0,1.4,0.2
	c0.2,0.2,0.4,0.4,0.6,0.4h0.2c0,0,0.1,0.6-0.1,0.7c-0.4,0.1-0.9-0.3-1.3,0.5c-0.3,0.5-0.7,0.4-1.2,0.1C196.9,56.9,196.7,56,196.7,56
	 M193.7,56L193.7,56c0.3-0.4,0.6-0.4,1.1-0.4c0.5,0,0.8,0.1,0.8,0.4v0.8c0,0-0.3,0.5-0.6,0.7c-0.3,0.2-0.5,0.1-0.8-0.1
	c-0.3-0.2-0.5-0.1-0.7-0.2c-0.2,0-0.6,0.1-0.8,0.1c-0.2,0-0.4-0.1-0.6-0.3c-0.1-0.1-0.1-0.6-0.1-0.6C192.5,56.5,193.3,56.4,193.7,56
	 M200.5,49.6L200.5,49.6l5.4-3.2l-4.8,4.4c0,0-0.2,0.4-0.2,0.5c0,0.1,0,0.3,0.3,0.8c0.2,0.5,0.3,1.1,0.3,1.1
	c-0.3-0.5-0.4-0.7-0.5-0.9c-0.2-0.2-0.4-0.5-0.4-0.5s-0.1-0.4-0.2-0.5c0-0.1-0.1-0.4,0-0.6C200.3,50.4,200.5,49.6,200.5,49.6
	 M197.1,47.1L197.1,47.1l4.5-7.6l-2.8,8.1L197.1,47.1z M192.1,114.4L192.1,114.4c5.9,6.7,11.3,17.2,18.2,22.3
	c0.4,0.3,0.9,0.2,0.9-0.3l-0.3-22.5c-0.9-5.9-3.6-11-6.3-14.1c-1.4-1.6-5.1-4.8-8.1-5.8l-4.9,1.3l-1.8,0.6l2.9-1.7
	c1.9-6.7,2.1-9.4,2.6-13.7c0.1-1.1,0.4-1.4,0.3,0c-0.1,4.2-0.3,6.1-1,12.6l1.3-0.8c0.5-0.4,0.8-0.3,1.3-0.2l1.4,0.3
	c2.5,0.8,3.5,2.7,6.1,4.5c-0.6-2.2-1-4.5-1.2-6.9c-0.1-0.7,0.1-0.6,0.4-0.1c1.2,3.5,2.6,6.3,4,8.9l1.4,1.8l1.7,3.3
	c-2-5.6-3.6-11.1-4.4-16.6c0-0.2-0.1-0.7,0.4-0.5l2.6,1.3c0.5-1,0.5-2,0.2-3l-2.2-6.8c0.9,1.5,1.2,2.2,2.4,3.4
	c1.5,1,2.3,1.6,3.9,1.3c2.9-2.2,2.2-1.7,3.6-5.9c-0.6,9.3-1.9,6.9-3.5,10.6c0.4,13.2,2,29.2,2.6,42.7c0.2,2.5-0.5,3.2-1.2,3.8
	l-2.1,1.9l-0.3,12.3c-6.7-7.6-12.3-16.7-18.7-28.4c-0.2-0.4-0.4-0.2-0.2,0.1c5,13,10.7,26.7,17.7,35.6c0.8,1,1,1.8,1.1,2.9l0.9,8.4
	l0.2,2h-3.8h-1c-4.6-14.5-14.8-37.7-18.1-54.2C190.9,113.9,191.5,113.6,192.1,114.4 M204.1,169h-2.7l-6.5-18.6
	c-0.2-0.7,0-0.9,0.5-0.2l11.1,18.9H204.1z M219.7,62.3L219.7,62.3L217,73.5l-0.9,2.5c-0.2,0.4-0.2,0.9-1.5,1c-0.8-0.5-1.2-0.8-1.8-2
	c-0.7-1.7-0.6-2.8-0.4-4.3c0.8-1.1,3-6.1,3.5-8.3L219.7,62.3z M212.9,52.9L212.9,52.9l0.7,0c0.7,0.7,0.9,1.8,1.3,3.3l0.5,2
	c0,0.1,0.1,0,0.1,0l-0.9-5.2c0-0.3-0.1-0.8-0.3-1c-0.2-0.1-0.3-0.2-0.5-0.3c-0.6-0.1-1.3-3.7-1-4.5l2.5,1.8l4.1,11.9l-6.1-0.1
	L212.9,52.9z M178.1,93.3L178.1,93.3l4.8,3.6c-0.6,0.6-0.9,1-1.1,1.5c-2.4-1-5.2-2.1-7.5-3.3c-0.3-0.1-0.5-0.3-0.6-0.6
	c0-1.9,1.3-2.2,2.8-1.8L178.1,93.3z M181.1,75.5L181.1,75.5c0.1-0.2,0.2-0.4,0.3-0.5c0.7-1.4,1.4-2.2,2.9-2.6
	c3.2-1.1,4.3-0.5,6.7-1.7c1.7,0.5,3.4,0.5,5.1,0.3c-1.2-0.4-4.4-1.3-4.9-2l0.9-0.8c0.3-0.3,0.5-0.7,0.5-1.4l-0.1-1l-0.6-3.4
	l-0.2-0.6l-0.6-0.9l-0.6-2.2l-0.4-1.4l0.6-1.4l0.9-1.3l0.9-1.2l3.3-0.5l1.4-0.2l1.1,0.6l1,0.5l0.3,1.4l0.7,0.7l0.2,3.1l-0.4,0.6
	l-0.2,0.6l-0.5,1.1c-0.1,0.7-0.2,1.5-0.3,2.2l1.2-1.9l0.1-1.2l1.2-1.8l-0.2-2.9l-0.2-1.4l-0.4-0.8l-0.4-0.5l-0.3-0.2l-0.1-0.6
	l-0.7-0.5l-0.6-0.2l0.9,1.1v0.3l-1,0c-0.5-0.8-1.6-1.2-2.6-1.6l0.2,0.8c-1,0.6-2.1,1.5-3.2,0.2c-1.5,0.6-1.5,0.5-2.6,1.8
	c-0.4-0.6-0.9-1.9-0.9-2.5c0.5-0.8,0.2-0.3,1.2-1.2l-0.3-1.1c1-1,2.4-1.7,4-2.1l1.8,0.1l-0.9-8.8l-1,8.4l-0.9,0l-0.6,0.2l-4.8-6.3
	l2.9,7.4l-0.3,0.2l-0.9,0.6l-6.4-3.5l5.1,4.8l-0.9,2.5l0,1.7l0,1.3l-0.5,1.4l0.8,1.9l0.1,3l1.6,1.4l-0.2,0.9
	c0.3,0.8,0.6,0.7,1.1,0.9l0,1.3c0,0.2-0.1,0.4,0,0.5c-2.1,0.7-5.2,1.9-7.5,3.2c-2.4,1.2-3.1,2.4-3.9,4c-0.6,1.1-1.2,2.3-1.6,3
	c-0.9,1.6-2.2,4.3-2.2,4.3l-1.4,3.3c0,0-0.6,2.6-1.7,5.8c-0.2,0.5-0.3,1-0.5,1.6c-0.6,2.3-0.6,4,2,5l7.2,3.6l0.2,0.1l0.3,0.7
	c0.2,0.6,0.7,0.9,1.3,1.1l1.3,0.4v0l-2.6,0l-1.2-1.1l-2.2,2.3l2.3,2.2l0.9-1l2.3,0l2.8,61.3l1.2,2.4l1.2-2.4c0.5-1,0.1-61,0.1-61
	v-0.1l1.9,0l1.1,1l2.2-2.3l-2.3-2.2l-1,1.1l-2.1,0l0-1.6l0.5-0.3c0.5-0.3,0.5-1.7,0.6-2.7c0-1-0.6-1.2-0.5-1.2
	c0.5,0.4,0.2,2.2-0.3,3.3c-0.6,0.8-1.7,1.1-2.8,1.3c0.4-1.3,1.1-3.2,0.4-3.8c0.9-0.1,1.7-0.2,2-0.6l0-0.5c0-0.8-0.4-1.5-1.1-1.9
	c0.2-0.3,0.4-0.7,0.3-1.1c0-1-0.9-1.7-1.8-1.7c-1,0-1.7,0.9-1.7,1.8c0,0.4,0.2,0.8,0.4,1.1c-0.5,0.4-0.9,1-0.9,1.7l-4.5-4.3l0.8-1.1
	c0.7,0,2.6,1.5,3.6,1.4c1.3-1.6,1.5-1.6,3.5-1.3c0.9-3.9,0.1-8.4-1.6-11.7c0.4,2.9,0.8,5.6,1,8c-0.5,1-4.1,1.2-4.3,0.2
	c-0.3-2.1,0.2-3.8-0.3-5.8c-1,2-0.9,3.4-1.5,4.4c-0.2,0.4-0.9,2.2-1.9,3.1l-0.2-0.1c-0.4-0.3-2.4-1.1-2.6-3.4l1.8-4.1
	c0,0,2.4-4.4,3.1-5.6C180.7,76.3,180.9,75.9,181.1,75.5 M211.2,70.2L211.2,70.2c-0.4-0.8-1.2-1.8-2-1.6c-1.2,0.3-4.2-2.1-4.2-2.1
	c-0.3,0.2,1.6,4.3,3.1,7.6c0.2-2.8-0.4-3.3,0.5-4.1c0.6-0.6,1.7,0.2,2.3,0.6c-0.3,0.5-0.5,0.9-0.5,0.9l-0.2,3.4
	c0.1,0.9,0.4,2.9,1.1,3.6c1.1,1,1.2,1.4,2.9,2.3c2-2.1,2.6-3.8,3.3-4.9l3.6-13.4v-0.4l1.4,0c0.1,0.2,0.3,0.3,0.4,0.4l-3.6,19
	c-0.2,0.1-0.3,0.2-0.3,0.3c0,0,0,0.1-0.1,0.1c0,0.1,0,0.2,0,0.3c0,1.1,2.5,2,5.6,1.9c3-0.1,5.5-1.1,5.4-2.3c0-0.1,0-0.2,0-0.3
	l-0.1-0.1c-0.1-0.1-0.2-0.2-0.3-0.2l-5.1-18.8c0.3-0.2,0.5-0.6,0.5-1.1c0-0.7-0.6-1.3-1.3-1.2c-0.5,0-0.9,0.3-1.1,0.6l-1.3,0
	c0-0.1,0-0.2-0.1-0.3l-3.6-9.2l-0.9-2.6c-0.2-0.5-0.4-0.9-0.9-1.3c-0.8-0.6-1.5-1-2.4-1.5c-0.3-0.1-0.6-0.1-0.8,0
	c-1,0.3-1.8,0.8-2.6,1.4c-0.3,0.3-0.4,0.5-0.3,0.9l0.8,3.6l0.3,0.3l0.3,8.7l-8.2,0.8c-0.2-0.4-0.5-0.6-1.1-0.6
	c-0.6,0-1.3,0.7-1.2,1.3c0,0.6,0.3,0.8,0.6,1.1l-3.6,19c-0.2,0.1-0.3,0.2-0.3,0.3c0,0,0,0.1-0.1,0.1c0,0.1,0,0.2,0,0.3
	c0,1.1,2.6,2,5.6,1.9c3-0.1,5.5-1.7,5.4-2.3c0-0.6,0-0.2,0-0.2l-0.1-0.1c-0.1-0.1-0.2-0.2-0.3-0.2l-5.1-18.8
	c0.1-0.1,0.3-0.3,0.3-0.4l8.4-0.3c0.1,0.5,0.5,0.8,1,0.8c0.5,0,0.9-0.4,0.9-0.9l2.6-0.1l-3.8,6.7C211.8,69.1,211.5,69.6,211.2,70.2
	 M193.4,62.8l1.7,1c1.1,0.3,1.8,0.1,2.9,0l1.1-0.3c-0.5,0.8-1.4,1.8-2.3,2.5l-1.3,0l-0.4-0.2l-1.6-1.6l-0.6-0.7L193.4,62.8z"/>
<path class="st8" d="M158.3,5.3c-0.3-0.2-0.4-0.4-0.4-0.8V3.1c0-0.5,0.4-0.9,0.9-0.9h0.1c0.2-1,1-1.9,1.5-2.2
	c0.5,0.2,1.3,1.1,1.5,2.2h0.1c0.5,0,0.9,0.4,0.9,0.9v1.4c0,0.3-0.1,0.5-0.3,0.7l1.1,4.3c0.2,0.6,0.6,0.8,1.1,0.9h1.7h5.9l0.6-2.2
	c-0.4,0.4-0.6,0.6-1.5,0.6c-1,0-2.4-1.2-2.4-2.7c0-1.5,1.6-2.7,2.4-2.7s0.4,0,0.6,0.1c0.3-0.8,1-1.1,1.4-1.3
	c0.4,0.2,1.1,0.5,1.4,1.3c0.2-0.1-0.2-0.1,0.6-0.1s2.4,1.2,2.4,2.7c0,1.5-1.5,2.7-2.4,2.7c-0.9,0-1-0.2-1.4-0.5l0.6,2h11.5l0.6-1.9
	c-0.3,0.2-0.3,0.3-1.2,0.3c-0.9,0-2.4-1.2-2.4-2.7c0-1.5,1.6-2.7,2.4-2.7c0.8,0,0.4,0,0.6,0.1c0.3-0.8,1-1.1,1.4-1.3
	c0.4,0.2,1.1,0.5,1.4,1.3c0.2,0-0.2-0.1,0.5-0.1c0.8,0,2.4,1.2,2.4,2.7c0,1.5-1.5,2.7-2.4,2.7c-0.9,0-0.9-0.2-1.3-0.4l0.6,2h10.1
	l0.6-1.8c-0.3,0.2-0.2,0.2-1,0.2c-0.8,0-2.4-1.2-2.4-2.7c0-1.5,1.6-2.7,2.4-2.7c0.8,0,0.4,0,0.6,0.1c0.3-0.8,1-1.1,1.4-1.3
	c0.4,0.2,1,0.5,1.4,1.3c0.2,0-0.2-0.1,0.5-0.1c0.8,0,2.4,1.2,2.4,2.7c0,1.5-1.5,2.7-2.4,2.7c-0.9,0-0.8-0.1-1.2-0.3l0.7,1.9h10.5
	l0.5-1.7c-0.3,0.1-0.1,0.2-0.9,0.2s-2.4-1.2-2.4-2.7c0-1.5,1.6-2.7,2.4-2.7c0.8,0,0.4,0,0.6,0.1c0.3-0.8,1-1.1,1.4-1.3
	c0.4,0.2,1.1,0.5,1.4,1.3c0.2,0-0.2-0.1,0.5-0.1c0.8,0,2.4,1.2,2.4,2.7c0,1.5-1.4,2.7-2.4,2.7c-1,0-1.2-0.2-1.6-0.7l0.6,2.2h11.1
	l0.5-2.1c-0.4,0.4-0.5,0.6-1.5,0.6c-0.9,0-2.4-1.2-2.4-2.7c0-1.5,1.6-2.7,2.4-2.7c0.8,0,0.4,0,0.6,0.1c0.3-0.8,1-1.1,1.4-1.3
	c0.4,0.2,1.1,0.5,1.4,1.3c0.2,0-0.2-0.1,0.5-0.1c0.8,0,2.4,1.2,2.4,2.7c0,1.5-1.5,2.7-2.4,2.7c-0.9,0-0.9-0.2-1.3-0.4l0.5,1.9h6.3h0
	h0.4h1.2c0.6,0,1-0.3,1.2-0.9l0.8-4.1c-0.3-0.1-0.6-0.5-0.6-0.8V3.1c0-0.5,0.4-0.9,0.9-0.9h0.1c0.2-1,1-1.9,1.5-2.2
	c0.5,0.2,1.3,1.1,1.5,2.2h0.1c0.5,0,0.9,0.4,0.9,0.9v1.4c0,0.4-0.2,0.7-0.5,0.8l1.6,8.9h-87.2L158.3,5.3z"/>
<path class="st8" d="M239.9,27.7h-1.3h-82.8c-2.5-0.1-5.1,0.3-7.5,0.8l-20.6,3.9l20.2-9.1c0.4-0.2,4.2-2.4,7-4h90
	c2.8,1.6,7.1,3.7,7.6,4l20.2,9.1l-20.6-3.9c-2.4-0.5-5-0.9-7.5-0.8H239.9z"/>
<path class="st8" d="M21.4,268.1c-2.5-0.1-4.9-1.7-6.6-2.8l-10.9-7.8c131.1,0,262.2,0,393.2,0l-10.9,7.8c-1.7,1.2-4.1,2.8-6.6,2.8
	H21.4z"/>
<path class="st8" d="M188.4,191L20.8,246.6c-3.1,1-2.3,3.4-0.1,3.4h42.2c0.5-0.1,0.7-0.6,0.7-0.9c0-0.5-0.3-0.9-0.6-1
	c-4-0.8-5-1.8-2.4-3l139.7-46.7l0.1,0l0.1,0l139.7,46.7c2.5,1.2,1.5,2.2-2.4,3c-0.3,0.1-0.6,0.5-0.6,1c0,0.3,0.2,0.8,0.7,0.9h42.2
	c2.2,0,3-2.5-0.1-3.4L211.8,191c-7.1-2.3-9.5-3.4-11.7-3.5h0C197.9,187.5,195.5,188.7,188.4,191"/>
<path class="st8" d="M15.6,188.8l-1.1-1.1v0c-0.3-0.4-0.5-0.9-0.5-1.4c0-1.2,0.9-2.1,2.1-2.1H148c3.4,0,6.2,0,9-1l21.9-7.8
	c3-1.2,5.3-1.8,8.3-2l12.9,0l12.9,0c3,0.2,5.3,0.8,8.3,2l23.1,7.8c2.8,1,5.6,1,9,1h130.7c1.1,0.1,2.1,1,2.1,2.1c0,0.5-0.2,1-0.5,1.4
	v0l-1.1,1.1h10.8c1.2,0,2.1,1,2.1,2.1c0,0.5-0.2,1-0.5,1.4l-7.7,7.6h-3.9l0,16.9l-11.8-4.2c-1.6-0.6-2.7-1.7-2.8-3.9v-8.8v0h0
	c0.3-0.7,0.6-1.3,1.1-1.8l2.8-3h-122c-3.2-0.1-5.8-0.7-7.8-1.4l-37.7-12.3c-2.3-0.7-4.7-1.2-7.1-1.4c-2.4,0.1-4.8,0.7-7.1,1.4
	l-36.5,12.3c-2,0.7-4.6,1.3-7.8,1.4H25.5l2.8,3c0.5,0.5,0.9,1.1,1.2,1.8v0v8.8c0,2.2-1.2,3.3-2.8,3.9l-11.8,4.2l0-16.9h-3.9
	l-7.7-7.6c-0.3-0.4-0.5-0.9-0.5-1.4c0-1.2,1-2.1,2.1-2.1H15.6z"/>
</svg>
